<svg xmlns="http://www.w3.org/2000/svg" xml:space="preserve" width="192.93" height="86.05">
  <defs>
    <clipPath id="a">
      <path d="M0 0h1190.551v841.89H0V0z"/>
    </clipPath>
    <clipPath id="b">
      <path d="M0 0h1190.551v841.89H0V0z"/>
    </clipPath>
    <clipPath id="c">
      <path d="M0 0h1190.551v841.89H0V0z"/>
    </clipPath>
  </defs>
  <g clip-path="url(#a)" transform="matrix(1.25 0 0 -1.25 -784.27 1019.118)">
    <path d="M0 0c37.222 3.82 62.725.436 81.661-4.791.133-.015-35.482 5.195-79.99-.358-42.431-5.138-72.322-18.413-72.245-18.128C-58.292-14.717-37.16-5.163 0 0" style="fill:#009e3d;fill-opacity:1;fill-rule:nonzero;stroke:none" transform="translate(700.223 770.724)"/>
    <path d="M0 0c-1.805.14-2.896 2.794-2.953 8.015-.058 5.373 1.246 8.225 2.969 8.225 1.332 0 2.215-1.283 3.059-2.711L3.061 2.863C2.359 1.436 1.537.042.027 0H0zm3.075-1.83v-1.414h3.321v30.77H3.075v-9.401l-.014.014c-.844.924-1.984 1.87-3.571 1.842-3.343-.055-5.8-4.077-5.83-11.785C-6.365.946-4.293-3.71-.51-3.742c1.622-.014 2.846.985 3.571 1.926l.014-.014z" style="fill:#004289;fill-opacity:1;fill-rule:nonzero;stroke:none" transform="translate(764.465 778.339)"/>
    <path d="M0 0v15.726c-.065 2.786-.381 4.303-1.061 5.586-.642 1.263-1.887 1.939-3.178 1.939-.858 0-1.872-.415-2.611-1-.792-.617-1.098-.823-1.851-1.783l-.015-.016v2.284h-3.324L-12.023 0h3.307l.031 15.993c.604 1.058.996 1.453 1.598 2.143.62.523 1.216 1.047 1.898 1.047.855 0 1.139-.498 1.406-1.078.3-.752.428-1.849.428-3.583L-3.339 0H0z" style="fill:#004289;fill-opacity:1;fill-rule:nonzero;stroke:none" transform="translate(754.888 775.086)"/>
  </g>
  <path d="M0 0v3.499h-8.589v27.269h-3.33L-11.904 0H0z" style="fill:#004289;fill-opacity:1;fill-rule:nonzero;stroke:none" transform="matrix(1.25 0 0 -1.25 123.07 50.255)"/>
  <g clip-path="url(#b)" transform="matrix(1.25 0 0 -1.25 -784.27 1019.118)">
    <path d="M0 0c-.584-1.022-1.479-1.783-2.213-1.8-1.301-.032-1.729 1.375-1.679 3.584.063 2.845 1.709 4.35 3.892 5.051V0zm3.78-4.833v.764c-.377.375-.44 1.22-.44 3.032v10.67c0 6.557-1.568 8.736-4.908 8.752-3.508.016-4.932-3.336-5.233-6.719l3.366-.451c.186 1.868.669 3.862 1.757 3.834 1.221-.031 1.615-1.52 1.662-4.563v-.471c-5.529-1.321-7.272-4.513-7.288-8.908-.016-4.085 1.612-6.43 4.411-6.43 1.354 0 2.561.817 3.113 1.566v-.078c.064-.39.121-.58.317-.998H3.78z" style="fill:#004289;fill-opacity:1;fill-rule:nonzero;stroke:none" transform="translate(735.236 779.924)"/>
    <path d="M0 0c-.582-1.022-1.479-1.783-2.214-1.8-1.299-.032-1.727 1.375-1.677 3.584.063 2.845 1.709 4.35 3.891 5.051V0zm3.782-4.833v.764c-.377.375-.442 1.22-.442 3.032v10.67c0 6.557-1.567 8.736-4.907 8.752-3.508.016-4.933-3.336-5.232-6.719l3.365-.451c.187 1.868.669 3.862 1.757 3.834 1.221-.031 1.614-1.52 1.662-4.563v-.471c-5.53-1.321-7.273-4.513-7.289-8.908-.014-4.085 1.612-6.43 4.413-6.43 1.353 0 2.56.817 3.112 1.566v-.078c.065-.39.121-.58.316-.998h3.245z" style="fill:#004289;fill-opacity:1;fill-rule:nonzero;stroke:none" transform="translate(706.707 779.924)"/>
    <path d="M0 0c.531.996.863 1.561 1.403 2.021.624.514.996.601 1.526.619.774.024 1.516-.538 2.067-1.851.559-1.428.798-3.394.798-6.278 0-3.381-.357-5.298-.848-6.438-.519-.95-1.111-1.618-2.029-1.618-.671 0-1.187.368-1.699.838-.453.574-.746.783-1.218 1.801V0zm-3.332-26.408H0v10.83l.024-.013c.357-.413.539-.631 1.095-1.009.782-.531 1.343-.671 2.154-.718 1.892-.113 3.542 1.254 4.415 3.018.947 1.91 1.515 4.951 1.515 8.883 0 4.063-.601 6.952-1.501 8.762-1.097 2.202-2.658 3.067-4.195 3.067-.885 0-1.652-.242-2.277-.683-.626-.461-.785-.643-1.244-1.155h-.012l.012 1.337h-3.318v-32.319z" style="fill:#004289;fill-opacity:1;fill-rule:nonzero;stroke:none" transform="translate(665.727 791.91)"/>
    <path d="M0 0c-.583-1.022-1.479-1.783-2.214-1.8-1.3-.032-1.727 1.375-1.678 3.584.062 2.845 1.71 4.35 3.892 5.051V0zm3.781-4.833v.764c-.378.375-.442 1.22-.442 3.032v10.67c0 6.557-1.567 8.736-4.907 8.752-3.507.016-4.933-3.336-5.232-6.719l3.365-.451c.186 1.868.669 3.862 1.756 3.834 1.221-.031 1.615-1.52 1.662-4.563v-.471c-5.528-1.321-7.272-4.513-7.286-8.908-.016-4.085 1.61-6.43 4.411-6.43 1.352 0 2.561.817 3.113 1.566v-.078c.063-.39.12-.58.315-.998h3.245z" style="fill:#004289;fill-opacity:1;fill-rule:nonzero;stroke:none" transform="translate(655.43 779.924)"/>
    <path d="M0 0h-1.8v-3.489H0v-13.313c0-5.525 2.01-6.264 4.163-6.5 1.248-.136 2.65.936 3.413 1.579l-.856 3.491c-.626-.79-1.047-1.412-1.873-1.412-1.182 0-1.54 1.421-1.54 5.29v10.865h3.357V0H3.307v4.9H0V0z" style="fill:#004289;fill-opacity:1;fill-rule:nonzero;stroke:none" transform="translate(689.66 797.784)"/>
    <path d="M0 0c-2.567.299-4.075-3.072-6.565-12.875-2.422-9.462-3.824-16.065-4.2-21.401-.074-1.029.263-2.096.638-2.024.826.157 1.588 3.101 4.109 8.244 5.512 11.311 5.49 9.814 5.524 11.78.01.56-.209.892-.434.85-.391.013-.634-.292-5.117-8.513C-4.948-16.734-2.162-5.915 0 0" style="fill:#004289;fill-opacity:1;fill-rule:nonzero;stroke:none" transform="translate(686.38 802.675)"/>
    <path d="M0 0c-.694-2.643-1.775-6.343-4.426-6.343-2.699 0-5.293 2.865-5.293 12.293 0 9.396 2.656 12.387 5.216 12.421 2.355.031 3.484-2.392 4.171-5.68l3.169.73C1.766 19.254-1 21.772-4.391 21.793c-2.403.014-4.554-1.378-6.025-3.841-1.524-2.615-2.58-6.856-2.58-11.887 0-5.53 1.032-9.628 2.675-12.292 1.422-2.304 3.67-3.586 5.89-3.586 3.461 0 6.553 3.707 7.598 8.899L0 0z" style="fill:#004289;fill-opacity:1;fill-rule:nonzero;stroke:none" transform="translate(642.641 784.464)"/>
    <path d="M0 0a3.668 3.668 0 1 0-7.337 0A3.668 3.668 0 0 0 0 0" style="fill:#e40521;fill-opacity:1;fill-rule:nonzero;stroke:none" transform="translate(689.676 808.784)"/>
  </g>
</svg>